#!OML:ASF H:\Terrain\Patient Classification 1\Walking\steve\steve.ASF
:FULLY-SPECIFIED
:DEGREES
197
root 8.08828 16.2786 12.0869 11.1095 -3.76362 1.5007
lowerback 3.3222 1.31259 -6.94805
upperback -1.7777 1.32471 -2.38619
thorax -3.81646 0.800027 1.33074
lowerneck -10.6844 -0.559831 -1.81281
upperneck 14 -1.24475 5.07903
head 6.04116 -0.306992 1.80465
rclavicle -5.36719e-015 7.95139e-015
rhumerus -50.7544 -1.59622 -83.9352
rradius 26.9516
rwrist -3.81843
rhand -16.2961 -34.4278
rfingers 7.12502
rthumb 9.91454 -64.1743
lclavicle -5.36719e-015 7.95139e-015
lhumerus 13.3104 7.81807 83.1325
lradius 23.2591
lwrist 13.6057
lhand -24.1092 -15.1415
lfingers 7.12502
lthumb 2.37191 14.825
rfemur -40.5915 0.864882 22.6601
rtibia 58.7951
rfoot -24.9697 3.84202
rtoes -17.6577
lfemur -15.6514 1.63645 -26.9897
ltibia 35.7207
lfoot -22.688 -6.75393
ltoes -1.17094
198
root 8.08858 16.284 12.3297 10.9125 -3.58693 1.64678
lowerback 3.22766 0.97218 -7.12179
upperback -1.76848 0.879532 -2.17762
thorax -3.72627 0.583656 1.67625
lowerneck -10.8929 -0.458966 -1.98517
upperneck 14.3316 -1.08932 5.07153
head 6.17653 -0.235298 1.84668
rclavicle -8.24956e-015 5.56597e-015
rhumerus -52.1097 -3.61293 -81.3367
rradius 25.2929
rwrist -1.66352
rhand -15.785 -33.9865
rfingers 7.12502
rthumb 10.4076 -63.709
lclavicle -8.24956e-015 5.56597e-015
lhumerus 15.0912 7.20006 83.1196
lradius 23.6168
lwrist 13.6219
lhand -24.2537 -15.193
lfingers 7.12502
lthumb 2.23234 14.7751
rfemur -41.8785 1.51226 22.4952
rtibia 57.4722
rfoot -24.4412 4.00553
rtoes -17.5842
lfemur -13.6733 1.61128 -27.0935
ltibia 34.1475
lfoot -22.2511 -6.97156
ltoes -1.20919
199
root 8.09366 16.297 12.5712 10.8483 -3.36285 1.96462
lowerback 2.92189 0.578199 -7.36201
upperback -1.69336 0.382031 -2.04509
thorax -3.43723 0.334001 1.9838
lowerneck -11.0586 -0.242813 -2.04481
upperneck 14.5293 -0.789257 5.05699
head 6.25628 -0.0905848 1.87958
rclavicle -4.07509e-015 1.98785e-014
rhumerus -53.3801 -5.51389 -78.5005
rradius 23.7161
rwrist 0.583208
rhand -15.7966 -33.6849
rfingers 7.12502
rthumb 10.3963 -63.4078
lclavicle -4.07509e-015 1.98785e-014
lhumerus 17.0677 6.55075 82.9418
lradius 23.816
lwrist 13.9016
lhand -23.3675 -15.6494
lfingers 7.12502
lthumb 3.08818 14.308
rfemur -43.2548 2.15677 22.0215
rtibia 56.0997
rfoot -23.7463 4.39758
rtoes -16.8744
lfemur -11.9047 1.46704 -27.3979
ltibia 32.5714
lfoot -21.711 -7.50017
ltoes 0.647518
200
root 8.09674 16.3062 12.796 10.8858 -3.06446 1.9126
lowerback 2.95744 0.174559 -7.27222
upperback -1.79865 -0.154552 -1.84015
thorax -3.51822 0.0729166 2.17771
lowerneck -10.9031 0.0658195 -1.67677
upperneck 14.496 -0.370799 4.66409
head 6.20216 0.09826 1.72785
rclavicle -2.98177e-015 3.33958e-014
rhumerus -54.9994 -7.15324 -75.4866
rradius 22.5985
rwrist 2.45885
rhand -15.106 -33.3182
rfingers 7.12502
rthumb 11.0625 -63.0066
lclavicle -2.98177e-015 3.33958e-014
lhumerus 19.0187 5.87953 82.5305
lradius 23.9328
lwrist 14.286
lhand -22.0753 -15.1286
lfingers 7.12502
lthumb 4.33606 14.807
rfemur -44.7071 2.93588 21.9307
rtibia 54.6315
rfoot -23.0555 4.16695
rtoes -17.0592
lfemur -10.3077 1.18804 -27.2436
ltibia 30.9659
lfoot -20.9277 -8.14836
ltoes 3.089
201
root 8.09967 16.2967 13.0291 10.9234 -2.79057 2.003
lowerback 2.92356 -0.224966 -7.35585
upperback -1.91932 -0.689085 -1.68106
thorax -3.5735 -0.183989 2.42019
lowerneck -11.1125 0.283653 -1.31439
upperneck 14.8831 -0.093022 4.30462
head 6.3522 0.229449 1.58143
rclavicle -6.95746e-016 -1.90833e-014
rhumerus -56.5978 -9.34359 -71.4785
rradius 21.1685
rwrist 5.26664
rhand -13.8875 -31.6912
rfingers 7.12502
rthumb 12.2375 -61.3132
lclavicle -6.95746e-016 -1.90833e-014
lhumerus 20.7996 5.47078 82.1416
lradius 24.2701
lwrist 14.414
lhand -21.298 -14.6027
lfingers 7.12502
lthumb 5.08659 15.3162
rfemur -46.002 3.54999 21.6645
rtibia 53.0867
rfoot -22.5881 3.97693
rtoes -16.5255
lfemur -8.60098 1.00157 -27.2736
ltibia 29.3033
lfoot -20.3668 -8.33277
ltoes 2.52011
202
root 8.10256 16.2743 13.2779 10.8921 -2.52173 2.7068
lowerback 2.64222 -0.63968 -7.97462
upperback -1.91953 -1.24103 -1.69914
thorax -3.35284 -0.45115 2.77188
lowerneck -11.1037 0.500127 -1.09782
upperneck 14.9443 0.202961 4.04734
head 6.3621 0.36392 1.48938
rclavicle -1.90833e-014 -8.74653e-015
rhumerus -58.2983 -11.6025 -67.1317
rradius 19.9944
rwrist 8.6781
rhand -13.3161 -31.2392
rfingers 7.12502
rthumb 12.7885 -60.8275
lclavicle -1.90833e-014 -8.74653e-015
lhumerus 22.4137 4.42984 81.3038
lradius 24.7375
lwrist 15.3392
lhand -21.1065 -14.8744
lfingers 7.12502
lthumb 5.27149 15.04
rfemur -47.0864 3.79438 20.7241
rtibia 51.4952
rfoot -22.3494 4.18391
rtoes -16.6949
lfemur -6.71874 1.15049 -28.0156
ltibia 27.6267
lfoot -20.23 -7.85337
ltoes -2.37534
203
root 8.10779 16.2534 13.5346 10.6557 -2.19254 3.04749
lowerback 2.58351 -1.06091 -8.13604
upperback -1.922 -1.80065 -1.63316
thorax -3.25657 -0.728174 2.95573
lowerneck -10.6206 0.752797 -0.97982
upperneck 14.6008 0.57119 3.82943
head 6.16039 0.523474 1.42482
rclavicle 2.28602e-015 7.15625e-015
rhumerus -60.2569 -13.1795 -62.9999
rradius 19.2398
rwrist 11.3851
rhand -13.3028 -32.1906
rfingers 7.12502
rthumb 12.8013 -61.7781
lclavicle 2.28602e-015 7.15625e-015
lhumerus 23.8558 3.27338 80.1426
lradius 25.1283
lwrist 16.5628
lhand -21.1821 -15.0331
lfingers 7.12502
lthumb 5.19853 14.8831
rfemur -47.9098 3.99786 20.2093
rtibia 49.8152
rfoot -22.1146 3.82641
rtoes -20.1147
lfemur -4.52345 1.40328 -28.2634
ltibia 25.797
lfoot -19.6599 -8.28883
ltoes -1.73442
204
root 8.11566 16.2271 13.7934 10.3993 -1.81793 3.11702
lowerback 2.55967 -1.52333 -8.05196
upperback -1.91077 -2.40459 -1.45938
thorax -3.15981 -1.03231 3.115
lowerneck -10.8768 0.864192 -0.81922
upperneck 14.8507 0.728673 3.57184
head 6.28178 0.591781 1.33388
rclavicle -9.93923e-015 -1.35174e-014
rhumerus -62.1384 -14.8475 -57.9461
rradius 18.1998
rwrist 14.594
rhand -13.9323 -32.1971
rfingers 7.12502
rthumb 12.1944 -61.8216
lclavicle -9.93923e-015 -1.35174e-014
lhumerus 25.4834 3.66185 79.8735
lradius 25.2681
lwrist 16.3225
lhand -20.955 -15.0065
lfingers 7.12502
lthumb 5.41778 14.9042
rfemur -48.7454 4.06892 20.0521
rtibia 48.1689
rfoot -21.6507 3.51181
rtoes -20.1592
lfemur -2.11733 1.69816 -28.1533
ltibia 23.5871
lfoot -18.693 -9.10285
ltoes 1.04136
205
root 8.1295 16.1944 14.0485 10.2031 -1.24609 3.4811
lowerback 2.34933 -2.06442 -8.10829
upperback -1.73509 -3.09274 -1.3931
thorax -2.77379 -1.3922 3.22864
lowerneck -12.0017 0.897493 -0.145504
upperneck 15.5437 0.765157 2.76067
head 6.70495 0.593447 0.981352
rclavicle 1.81888e-014 4.77083e-014
rhumerus -63.8762 -16.4875 -52.7418
rradius 17.4583
rwrist 17.5346
rhand -14.6258 -31.8217
rfingers 7.12502
rthumb 11.5256 -61.4848
lclavicle 1.81888e-014 4.77083e-014
lhumerus 27.3311 4.28531 79.7887
lradius 25.5472
lwrist 16.0598
lhand -20.6959 -14.8344
lfingers 7.12502
lthumb 5.66792 15.0698
rfemur -49.5843 3.57043 19.6976
rtibia 46.4996
rfoot -21.2822 3.76469
rtoes -16.9312
lfemur 0.353424 2.20413 -28.294
ltibia 21.1738
lfoot -17.5713 -9.90868
ltoes 1.601
206
root 8.15263 16.163 14.3056 9.9628 -0.65269 4.11277
lowerback 2.15685 -2.52197 -8.20688
upperback -1.57721 -3.67803 -1.49994
thorax -2.43504 -1.69996 3.17592
lowerneck -11.0986 1.21335 -0.164916
upperneck 14.5832 1.213 2.83263
head 6.23397 0.802432 1.03127
rclavicle 3.95581e-014 4.77083e-015
rhumerus -65.7958 -16.8504 -49.1996
rradius 17.5695
rwrist 18.0329
rhand -14.3643 -32.3123
rfingers 7.12502
rthumb 11.7779 -61.9611
lclavicle 3.95581e-014 4.77083e-015
lhumerus 28.9668 3.65115 78.9285
lradius 26.0164
lwrist 17.245
lhand -20.8238 -14.735
lfingers 7.12502
lthumb 5.54444 15.1725
rfemur -50.2551 2.74257 19.1261
rtibia 44.7254
rfoot -21.3866 3.70106
rtoes -17.2794
lfemur 2.79825 2.89212 -28.6631
ltibia 18.9565
lfoot -16.3064 -11.1943
ltoes 3.83661
207
root 8.16794 16.1211 14.558 9.80662 -0.3107 4.19649
lowerback 2.14899 -2.83497 -7.90573
upperback -1.64306 -4.08759 -1.47054
thorax -2.4696 -1.90635 3.0521
lowerneck -10.4699 1.41646 -0.0572426
upperneck 14.137 1.4907 2.78844
head 5.98133 0.932442 1.0124
rclavicle 1.49089e-015 -3.97569e-015
rhumerus -67.8648 -16.9575 -45.4853
rradius 17.5105
rwrist 18.6946
rhand -14.0801 -32.8676
rfingers 7.12502
rthumb 12.0519 -62.5005
lclavicle 1.49089e-015 -3.97569e-015
lhumerus 30.3694 2.85751 77.8408
lradius 26.4002
lwrist 18.6236
lhand -20.8911 -14.5218
lfingers 7.12502
lthumb 5.47949 15.3874
rfemur -50.9038 2.65287 18.9439
rtibia 42.8084
rfoot -21.6119 3.1176
rtoes -19.4257
lfemur 5.03048 3.31379 -28.539
ltibia 16.9438
lfoot -15.6557 -11.5887
ltoes 1.90138
208
root 8.16565 16.0694 14.797 9.82283 0.0355641 3.6893
lowerback 2.2249 -3.17769 -7.30533
upperback -1.76077 -4.53123 -1.19107
thorax -2.60655 -2.12876 3.02954
lowerneck -10.2885 1.7039 0.29279
upperneck 13.9632 1.88446 2.41825
head 5.89697 1.11145 0.866192
rclavicle -2.95195e-014 7.95139e-015
rhumerus -69.5306 -17.4254 -41.0187
rradius 16.9733
rwrist 20.1765
rhand -14.549 -32.5323
rfingers 7.12502
rthumb 11.5997 -62.1912
lclavicle -2.95195e-014 7.95139e-015
lhumerus 31.84 2.72368 77.0218
lradius 26.6001
lwrist 19.3659
lhand -20.8149 -14.1992
lfingers 7.12502
lthumb 5.55311 15.7081
rfemur -51.6819 3.22327 19.162
rtibia 40.8266
rfoot -21.4296 2.22669
rtoes -18.0633
lfemur 7.14046 3.30587 -27.7885
ltibia 14.6749
lfoot -15.2093 -11.1793
ltoes -2.68971
209
root 8.16442 16.0231 15.0449 9.83912 0.534284 3.64439
lowerback 2.1326 -3.58614 -7.21132
upperback -1.78887 -5.05946 -0.962918
thorax -2.51581 -2.3947 3.21947
lowerneck -10.1133 1.95817 0.5164
upperneck 13.6956 2.23879 2.15634
head 5.78467 1.27302 0.770504
rclavicle -9.54166e-014 -4.05521e-014
rhumerus -70.8356 -17.2354 -37.3936
rradius 16.6545
rwrist 20.3309
rhand -15.0611 -31.3746
rfingers 7.12502
rthumb 11.1058 -61.0608
lclavicle -9.54166e-014 -4.05521e-014
lhumerus 33.3707 2.70132 76.3535
lradius 26.7174
lwrist 19.9596
lhand -21.0097 -14.2345
lfingers 7.12502
lthumb 5.36496 15.6776
rfemur -52.4707 3.38326 18.9355
rtibia 39.1222
rfoot -21.0377 1.52517
rtoes -13.615
lfemur 9.82496 3.40613 -27.3767
ltibia 11.2488
lfoot -13.825 -11.2449
ltoes -3.15674
